<?xml version="1.0" encoding="utf-8"?><svg width="80" height="80" viewBox="0 0 80 80" xmlns="http://www.w3.org/2000/svg" xmlns:xlink="http://www.w3.org/1999/xlink"><view id="instagram" viewBox="0 0 40 40"/><svg viewBox="-85.33 -85.33 682.67 682.67" width="40" height="40" xmlns="http://www.w3.org/2000/svg"><rect height="512" rx="15%" width="512"/><g stroke="#fff" stroke-width="36"><rect height="364" rx="92" width="364" x="74" y="74"/><circle cx="256" cy="256" r="85"/></g><circle cx="362" cy="150" fill="#fff" r="24"/></svg><view id="linkedin" viewBox="40 0 40 40"/><svg viewBox="-85.33 -85.33 682.67 682.67" fill="#fff" width="40" height="40" x="40" xmlns="http://www.w3.org/2000/svg"><rect width="512" height="512" rx="15%" fill="#0077b5"/><circle cx="104" cy="104" r="48"/><path d="M237 178v259M104 178v259" stroke="#fff" stroke-width="86"/><path d="M279 293c0-26 18-53 48-53 31 0 43 24 43 59v138h86V289c0-80-42-116-99-116-45 0-67 25-78 42"/></svg><view id="twitter" viewBox="0 40 40 40"/><svg viewBox="-85.33 -85.33 682.67 682.67" width="40" height="40" y="40" xmlns="http://www.w3.org/2000/svg"><rect fill="#1da1f3" height="512" rx="15%" width="512"/><path d="M456 133c-14 7-31 11-47 13 17-10 30-27 37-46-15 10-34 16-52 20-61-62-157-7-141 75-68-3-129-35-169-85-22 37-11 86 26 109-13 0-26-4-37-9 0 39 28 72 65 80-12 3-25 4-37 2 10 33 41 57 77 57-42 30-77 38-122 34 170 111 378-32 359-208 16-11 30-25 41-42z" fill="#fff"/></svg></svg>